# AST/ASF file generated using VICON BodyLanguage
# -----------------------------------------------
:version 1.10
:name VICON
:units
  mass 1.0
  length 0.45
  angle deg
:documentation
   .ast/.asf automatically generated from VICON data using
   VICON BodyBuilder and BodyLanguage model FoxedUp or BRILLIANT.MOD
:root
   order TX TY TZ RX RY RZ
   axis XYZ
   position 0 0 0  
   orientation 0 0 0 
:bonedata
  begin
     id 1 
     name lhipjoint
     direction 0.61886 -0.69539 0.365302 
     length 2.20474 
     axis 0 0 0  XYZ
  end
  begin
     id 2 
     name lfemur
     direction 0.34202 -0.939693 0  
     length 6.65149  
     axis 0 0 20  XYZ
    dof rx ry rz
    limits (-160.0 20.0)
           (-70.0 70.0)
           (-60.0 70.0)
  end
  begin
     id 3 
     name ltibia
     direction 0.34202 -0.939693 0   
     length 6.35814   
     axis 0 0 20   XYZ
    dof rx
    limits (-10.0 170.0)
  end
  begin
     id 4 
     name lfoot
     direction 0.101224 -0.278109 0.955201   
     length 2.18766   
     axis -90 7.62852e-016 20   XYZ
    dof rx rz
    limits (-45.0 90.0)
           (-70.0 20.0)
  end
  begin
     id 5 
     name ltoes
     direction 1.53524e-011 -4.21877e-011 1   
     length 1.09206   
     axis -90 7.62852e-016 20   XYZ
    dof rx
    limits (-90.0 20.0)
  end
  begin
     id 6 
     name rhipjoint
     direction -0.600207 -0.708087 0.371972   
     length 2.1652  
     axis 0 0 0  XYZ 
  end
  begin
     id 7 
     name rfemur
     direction -0.34202 -0.939693 0   
     length 6.54691   
     axis 0 0 -20   XYZ
    dof rx ry rz
    limits (-160.0 20.0)
           (-70.0 70.0)
           (-70.0 60.0)
  end
  begin
     id 8 
     name rtibia
     direction -0.34202 -0.939693 0   
     length 6.37474   
     axis 0 0 -20   XYZ
    dof rx
    limits (-10.0 170.0)
 end
 begin
     id 9 
     name rfoot
     direction -0.111266 -0.3057 0.945604   
     length 2.00903  
     axis -90 -7.62852e-016 -20   XYZ
    dof rx rz
    limits (-45.0 90.0)
           (-20.0 70.0)
  end
  begin
     id 10 
     name rtoes
     direction -1.5362e-011 -4.21913e-011 1   
     length 1.00221   
     axis -90 -7.62852e-016 -20   XYZ
    dof rx
    limits (-90.0 20.0)
  end
  begin
     id 11 
     name lowerback
     direction -0.0224561 0.999731 -0.00577314   
     length 2.10409   
     axis 0 0 0   XYZ
    dof rx ry rz
    limits (-20.0 45.0)
           (-30.0 30.0)
           (-30.0 30.0)
  end
  begin
     id 12 
     name upperback
     direction 0.0213126 0.999185 -0.0342817   
     length 2.09783   
     axis 0 0 0   XYZ
    dof rx ry rz
    limits (-20.0 45.0)
           (-30.0 30.0)
           (-30.0 30.0)
  end
  begin
     id 13 
     name thorax
     direction 0.0312356 0.999036 -0.0308451   
     length 2.09788   
     axis 0 0 0   XYZ
    dof rx ry rz
    limits (-20.0 45.0)
           (-30.0 30.0)
           (-30.0 30.0)
  end
  begin
     id 14 
     name lowerneck
     direction -0.0114419 0.996481 0.0830329   
     length 1.38575   
     axis 0 0 0   XYZ
    dof rx ry rz
    limits (-20.0 45.0)
           (-30.0 30.0)
           (-30.0 30.0)
  end
  begin
     id 15 
     name upperneck
     direction -0.0075675 0.996187 -0.0869092   
     length 1.39401   
     axis 0 0 0   XYZ
    dof rx ry rz
    limits (-20.0 45.0)
           (-30.0 30.0)
           (-30.0 30.0)
  end
  begin
     id 16
     name head
     direction -0.00222073 0.999264 -0.0382974  
     length 1.3964  
     axis 0 0 0   XYZ
    dof rx ry rz
    limits (-20.0 45.0)
           (-30.0 30.0)
           (-30.0 30.0)
  end
  begin
     id 17 
     name lclavicle
     direction 0.965962 0.222138 0.132556  
     length 2.81514  
     axis 0 0 0   XYZ
    dof ry rz
    limits (-20.0 10.0)
           (0.0 20.0)
  end
  begin
     id 18 
     name lhumerus
     direction 1 -4.48972e-011 7.03471e-018   
     length 4.47366   
     axis 180 -30 -90   XYZ
    dof rx ry rz
    limits (-60.0 90.0)
           (-90.0 90.0)
           (-90.0 90.0)
  end
  begin
     id 19
     name lradius
     direction 1 -4.48951e-011 -6.22192e-028   
     length 3.19948   
     axis 180 -30 -90   XYZ
    dof rx
    limits (-10.0 170.0)
  end
  begin
     id 20
     name lwrist
     direction 1 -4.48967e-011 -1.24264e-027   
     length 1.59974   
     axis 1.40095e-015 90 90   XYZ
    dof ry
    limits (-180.0 0.0)
 end
  begin
     id 21 
     name lhand
     direction 1 -4.4897e-011 -2.48528e-027   
     length 0.492667   
     axis 1.58582e-015 90 90   XYZ
    dof rx rz
    limits (-90.0 90.0)
           (-45.0 45.0)
  end
  begin
     id 22 
     name lfingers
     direction 1 -4.48996e-011 -4.97056e-027   
     length 0.397201   
     axis 3.17164e-015 90 90   XYZ
    dof rx
    limits (0.0 90.0)
  end
  begin
     id 23
     name lthumb
     direction 0.707107 -6.34981e-011 0.707107   
     length 0.570303   
     axis -90 45 2.85299e-015   XYZ
    dof rx rz
    limits (-45.0 45.0)
           (-45.0 45.0)
  end
  begin
     id 24 
     name rclavicle
     direction -0.961164 0.229034 0.153972   
     length 3.09348  
     axis 0 0 0   XYZ 
    dof ry rz
    limits (-10.0 20.0)
           (-20.0 0.0)
  end
  begin
     id 25 
     name rhumerus
     direction -1 -4.48971e-011 -9.06263e-028  
     length 4.3269   
     axis 180 30 90   XYZ
    dof rx ry rz
    limits (-90.0 60.0)
           (-90.0 90.0)
           (-90.0 90.0)
  end
  begin
     id 26 
     name rradius
     direction -1 -4.48953e-011 1.44659e-027   
     length 3.1896   
     axis 180 30 90   XYZ
    dof rx
    limits (-10.0 170.0)
  end
  begin
     id 27 
     name rwrist
     direction -1 -4.48988e-011 -1.24264e-027   
     length 1.5948   
     axis 1.40095e-015 -90 -90   XYZ
    dof ry
    limits (-180.0 0.0)
  end
  begin
     id 28
     name rhand
     direction -1 -4.49033e-011 -2.48528e-027   
     length 0.464496   
     axis 1.58582e-015 -90 -90   XYZ
    dof rx rz
    limits (-90.0 90.0)
           (-45.0 45.0)
  end
  begin
     id 29
     name rfingers
     direction -1 -4.48905e-011 -4.97056e-027   
     length 0.374489   
     axis 3.17164e-015 -90 -90   XYZ
    dof rx
    limits (0.0 90.0)
  end
  begin
     id 30
     name rthumb
     direction -0.707107 -6.34909e-011 0.707107   
     length 0.537693   
     axis -90 -45 -2.85299e-015   XYZ
    dof rx rz
    limits (-45.0 45.0)
           (-45.0 45.0)
  end
:hierarchy
  begin
    root lhipjoint rhipjoint lowerback
    lhipjoint lfemur
    lfemur ltibia
    ltibia lfoot
    lfoot ltoes
    rhipjoint rfemur
    rfemur rtibia
    rtibia rfoot
    rfoot rtoes
    lowerback upperback
    upperback thorax
    thorax lowerneck lclavicle rclavicle
    lowerneck upperneck
    upperneck head
    lclavicle lhumerus
    lhumerus lradius
    lradius lwrist
    lwrist lhand lthumb
    lhand lfingers
    rclavicle rhumerus
    rhumerus rradius
    rradius rwrist
    rwrist rhand rthumb
    rhand rfingers
  end

#!OML:ASF G:\acrobat\cartwheel_test 2\Patient 1\Session 2\acrobat4.ASF
:FULLY-SPECIFIED
:DEGREES
2503
root 9.38733 26.0641 17.9162 365.452 0.0102626 1083.62
lowerback -8.90916 3.45694 -3.08736
upperback -4.28001 4.83578 -0.0908979
thorax 0.294276 2.46343 2.05519
lowerneck -11.3618 -5.69033 -12.106
upperneck 26.6124 -6.56002 4.48215
head 11.0583 -3.68476 2.81267
rclavicle -6.80837e-014 -3.57812e-015
rhumerus 48.8392 -19.2722 -8.29772
rradius 45.6402
rwrist 20.4312
rhand -54.2676 -737.486
rfingers 7.12502
rthumb -26.6795 -405.625
lclavicle -6.80837e-014 -3.57812e-015
lhumerus 64.492 9.57073 14.489
lradius 36.1142
lwrist -7.29028
lhand -43.9167 -341.516
lfingers 7.12502
lthumb -16.741 -312.218
rfemur -16.9397 13.1197 21.8473
rtibia 46.1128
rfoot -31.006 -25.9631
rtoes 7.17891
lfemur -16.5004 -0.358953 -27.7604
ltibia 43.6724
lfoot 149.324 -176.139
ltoes 4.49016
2504
root 9.382 26.071 17.8991 365.382 0.0645186 1083.46
lowerback -8.86167 3.4578 -2.92834
upperback -4.24008 4.82314 -0.0484723
thorax 0.320353 2.45437 2.00825
lowerneck -11.3394 -5.67314 -11.7768
upperneck 26.924 -6.52593 4.14348
head 11.1431 -3.68068 2.64129
rclavicle 4.63665e-014 7.15625e-015
rhumerus 47.4841 -19.0923 -7.73792
rradius 44.8341
rwrist 20.0068
rhand -57.4777 -735.979
rfingers 7.12502
rthumb -29.7475 -403.611
lclavicle 4.63665e-014 7.15625e-015
lhumerus 63.5895 9.08914 14.4218
lradius 35.3484
lwrist -7.10327
lhand -44.0661 -342.092
lfingers 7.12502
lthumb -16.8848 -312.806
rfemur -16.9385 13.2396 22.0473
rtibia 46.1344
rfoot -30.9045 -26.0346
rtoes 7.06906
lfemur -16.4916 -0.421278 -27.5855
ltibia 43.6119
lfoot 149.495 -175.896
ltoes 3.89245
2505
root 9.37507 26.0768 17.8787 365.279 0.0671869 1083.52
lowerback -8.7546 3.41225 -3.09199
upperback -4.15752 4.77291 -0.00101127
thorax 0.331912 2.43082 2.13948
lowerneck -12.0675 -5.83055 -11.983
upperneck 27.9746 -6.62827 4.12004
head 11.7148 -3.75851 2.64165
rclavicle 2.17172e-014 1.66979e-014
rhumerus 46.0259 -18.9772 -7.11294
rradius 44.3092
rwrist 19.5046
rhand -59.4156 -735.231
rfingers 7.12502
rthumb -31.5953 -402.518
lclavicle 2.17172e-014 1.66979e-014
lhumerus 62.4288 8.64431 14.2146
lradius 34.4943
lwrist -6.70667
lhand -44.3349 -342.823
lfingers 7.12502
lthumb -17.1435 -313.559
rfemur -16.9351 13.3708 21.9976
rtibia 46.1686
rfoot -30.7502 -26.1294
rtoes 6.62254
lfemur -16.4407 -0.40574 -27.6446
ltibia 43.5451
lfoot 149.679 -175.817
ltoes 3.68068
2506
root 9.36909 26.0845 17.8544 365.18 0.0595599 1083.65
lowerback -8.60256 3.41409 -3.26977
upperback -4.04803 4.7861 -0.00731151
thorax 0.346559 2.43807 2.22638
lowerneck -13.355 -6.1924 -12.6794
upperneck 29.6026 -6.95401 4.47962
head 12.7166 -3.94528 2.82671
rclavicle -1.63003e-014 -3.97569e-016
rhumerus 44.6087 -19.0685 -6.92163
rradius 43.8415
rwrist 19.5076
rhand -59.9283 -734.854
rfingers 7.12502
rthumb -32.0836 -402.043
lclavicle -1.63003e-014 -3.97569e-016
lhumerus 61.0384 8.08981 13.4182
lradius 33.8868
lwrist -5.60802
lhand -44.7377 -343.499
lfingers 7.12502
lthumb -17.5313 -314.27
rfemur -16.994 13.3798 21.8622
rtibia 46.218
rfoot -30.497 -26.113
rtoes 6.06916
lfemur -16.3967 -0.517862 -27.7699
ltibia 43.465
lfoot 149.88 -175.706
ltoes 3.57393
2507
root 9.36393 26.0922 17.8294 365.127 0.0825891 1083.69
lowerback -8.52951 3.41092 -3.33635
upperback -3.90758 4.78713 -0.00750804
thorax 0.44629 2.43562 2.26411
lowerneck -14.2336 -6.29325 -12.7727
upperneck 30.6211 -6.96917 4.44842
head 13.3359 -3.97134 2.81779
rclavicle -2.46493e-014 -1.74931e-014
rhumerus 43.2053 -19.2785 -7.08344
rradius 43.3831
rwrist 19.8306
rhand -60.3333 -735.343
rfingers 7.12502
rthumb -32.4691 -402.454
lclavicle -2.46493e-014 -1.74931e-014
lhumerus 59.5516 7.52907 12.6097
lradius 33.347
lwrist -4.48791
lhand -45.2041 -344.246
lfingers 7.12502
lthumb -17.98 -315.057
rfemur -17.0922 13.2153 21.8106
rtibia 46.2716
rfoot -30.2431 -25.9727
rtoes 5.53912
lfemur -16.413 -0.643708 -27.7959
ltibia 43.3788
lfoot 150.113 -175.595
ltoes 3.46889
2508
root 9.35968 26.1029 17.8048 365.078 0.0724831 1083.68
lowerback -8.44827 3.39113 -3.34472
upperback -3.81112 4.76022 0.0118818
thorax 0.500902 2.42008 2.2851
lowerneck -14.465 -6.19189 -12.5262
upperneck 31.0126 -6.79891 4.24191
head 13.5135 -3.89813 2.72314
rclavicle -3.70733e-014 -1.23246e-014
rhumerus 41.5279 -19.4084 -7.27994
rradius 43.2499
rwrist 20.1318
rhand -60.5166 -737.262
rfingers 7.12502
rthumb -32.6435 -404.337
lclavicle -3.70733e-014 -1.23246e-014
lhumerus 57.917 6.9161 11.9699
lradius 32.841
lwrist -3.59568
lhand -45.6847 -345.105
lfingers 7.12502
lthumb -18.4424 -315.96
rfemur -17.207 13.068 21.788
rtibia 46.3022
rfoot -29.8867 -25.8055
rtoes 4.9828
lfemur -16.4458 -0.688618 -27.7717
ltibia 43.3116
lfoot 150.353 -175.524
ltoes 3.41968
2509
root 9.35563 26.1146 17.7792 364.998 0.0662693 1083.66
lowerback -8.26959 3.40537 -3.26891
upperback -3.75363 4.76892 -0.0292862
thorax 0.471761 2.42297 2.19152
lowerneck -14.5212 -6.16516 -12.3964
upperneck 31.3683 -6.79542 4.23101
head 13.6711 -3.88824 2.70087
rclavicle -1.31695e-014 6.75868e-015
rhumerus 39.5474 -19.1978 -6.94295
rradius 42.7978
rwrist 19.8934
rhand -60.1819 -740.406
rfingers 7.12502
rthumb -32.325 -407.546
lclavicle -1.31695e-014 6.75868e-015
lhumerus 56.2604 6.28844 11.3581
lradius 32.4349
lwrist -2.77888
lhand -46.1544 -346.075
lfingers 7.12502
lthumb -18.8942 -316.972
rfemur -17.2904 12.9244 21.7757
rtibia 46.3036
rfoot -29.4511 -25.676
rtoes 4.25817
lfemur -16.4709 -0.635978 -27.7262
ltibia 43.2684
lfoot 150.602 -175.535
ltoes 3.19027
2510
root 9.35005 26.1274 17.7493 364.981 0.14425 1083.67
lowerback -8.10022 3.41224 -3.21562
upperback -3.68848 4.77113 -0.137754
thorax 0.459958 2.42189 2.04196
lowerneck -14.6446 -6.15596 -12.1308
upperneck 31.7491 -6.84872 4.2153
head 13.8537 -3.88634 2.64292
rclavicle -3.94588e-014 -2.26615e-014
rhumerus 37.1192 -18.5764 -5.90509
rradius 42.0789
rwrist 18.8912
rhand -58.0971 -743.067
rfingers 7.12502
rthumb -30.3385 -410.592
lclavicle -3.94588e-014 -2.26615e-014
lhumerus 54.6294 5.84343 10.8582
lradius 32.0594
lwrist -2.14286
lhand -46.6053 -347.225
lfingers 7.12502
lthumb -19.3278 -318.165
rfemur -17.413 12.7487 21.7525
rtibia 46.2816
rfoot -29.0221 -25.5825
rtoes 3.59998
lfemur -16.5818 -0.650943 -27.6751
ltibia 43.25
lfoot 150.898 -175.705
ltoes 3.28532
2511
root 9.34368 26.1453 17.7173 364.978 0.209956 1083.73
lowerback -7.96654 3.37443 -3.29704
upperback -3.57198 4.72545 -0.207506
thorax 0.508797 2.39698 2.00789
lowerneck -14.7988 -6.11416 -11.7912
upperneck 32.0868 -6.84111 4.10964
head 14.0119 -3.85882 2.5453
rclavicle 5.70512e-014 0
rhumerus 34.4343 -17.809 -4.74875
rradius 41.7509
rwrist 17.6787
rhand -51.5251 -743.189
rfingers 7.12502
rthumb -24.0522 -411.702
lclavicle 5.70512e-014 0
lhumerus 52.5823 5.51921 10.3305
lradius 31.9711
lwrist -1.50109
lhand -47.0657 -348.433
lfingers 7.12502
lthumb -19.7704 -319.418
rfemur -17.5673 12.7523 21.6637
rtibia 46.2506
rfoot -28.6432 -25.4779
rtoes 3.54865
lfemur -16.7077 -0.721109 -27.6774
ltibia 43.2452
lfoot 151.237 -175.898
ltoes 3.51103
2512
root 9.33753 26.1597 17.6835 364.87 0.248452 1083.78
lowerback -7.75546 3.28965 -3.42546
upperback -3.37853 4.61762 -0.159455
thorax 0.584278 2.34086 2.11421
lowerneck -14.9601 -6.02991 -11.56
upperneck 32.3432 -6.70746 3.92598
head 14.1279 -3.79843 2.45473
rclavicle 5.64548e-014 1.47101e-014
rhumerus 31.9611 -16.9413 -3.62229
rradius 41.488
rwrist 16.4331
rhand -38.8002 -743.338
rfingers 7.12502
rthumb -11.811 -412.985
lclavicle 5.64548e-014 1.47101e-014
lhumerus 50.0706 5.25849 9.94682
lradius 32.0398
lwrist -0.932169
lhand -47.5895 -349.743
lfingers 7.12502
lthumb -20.2739 -320.781
rfemur -17.5719 12.7868 21.6028
rtibia 46.2106
rfoot -28.4185 -25.2754
rtoes 3.96278
lfemur -16.7456 -0.732082 -27.6811
ltibia 43.2549
lfoot 151.612 -175.975
ltoes 3.12691
2513
root 9.3315 26.1736 17.6464 364.741 0.307807 1083.79
lowerback -7.48528 3.16635 -3.4877
upperback -3.19741 4.45096 -0.10451
thorax 0.623235 2.25543 2.18287
lowerneck -15.2836 -5.94082 -11.3744
upperneck 32.9192 -6.54083 3.7413
head 14.4255 -3.73286 2.3764
rclavicle 3.13583e-014 2.38542e-015
rhumerus 29.6065 -15.9165 -2.64028
rradius 41.0926
rwrist 15.1789
rhand -32.2044 -744.521
rfingers 7.12502
rthumb -5.44605 -414.431
lclavicle 3.13583e-014 2.38542e-015
lhumerus 47.2862 5.03419 9.73875
lradius 31.9439
lwrist -0.575514
lhand -48.2381 -351.416
lfingers 7.12502
lthumb -20.8972 -322.522
rfemur -17.5545 12.7139 21.5913
rtibia 46.1495
rfoot -28.1809 -25.0713
rtoes 4.16466
lfemur -16.8121 -0.626806 -27.6361
ltibia 43.2904
lfoot 152.046 -176.073
ltoes 2.41421
2514
root 9.32654 26.1933 17.609 364.701 0.323785 1083.79
lowerback -7.31949 3.01884 -3.45897
upperback -3.02713 4.25036 -0.115749
thorax 0.723231 2.15062 2.13791
lowerneck -15.892 -5.84211 -11.269
upperneck 33.9363 -6.44189 3.91469
head 15.0238 -3.66201 2.44803
rclavicle -3.82909e-014 -7.55382e-015
rhumerus 24.984 -11.5782 1.75692
rradius 40.5883
rwrist 9.46497
rhand -29.3695 -744.266
rfingers 7.12502
rthumb -2.70855 -414.228
lclavicle -3.82909e-014 -7.55382e-015
lhumerus 44.4116 5.0202 9.6803
lradius 31.6516
lwrist -0.568966
lhand -48.9125 -353.392
lfingers 7.12502
lthumb -21.545 -324.57
rfemur -17.6596 12.515 21.5546
rtibia 46.0761
rfoot -27.5874 -24.8095
rtoes 3.64982
lfemur -16.9957 -0.328533 -27.5641
ltibia 43.3381
lfoot 152.552 -176.323
ltoes 1.67505
2515
root 9.32374 26.2131 17.5672 364.693 0.294467 1083.74
lowerback -7.09372 2.90346 -3.36505
upperback -2.81635 4.08675 -0.124219
thorax 0.83361 2.06331 2.0602
lowerneck -16.3894 -5.80709 -11.5476
upperneck 34.3979 -6.43667 4.42387
head 15.3928 -3.62754 2.7102
rclavicle 3.01904e-014 2.38542e-015
rhumerus 21.971 -9.75379 2.89048
rradius 40.7611
rwrist 7.47602
rhand -26.2952 -743.401
rfingers 7.12502
rthumb 0.260602 -413.381
lclavicle 3.01904e-014 2.38542e-015
lhumerus 41.3564 4.82531 9.06053
lradius 31.7835
lwrist 0.0677839
lhand -49.5779 -355.085
lfingers 7.12502
lthumb -22.1839 -326.338
rfemur -17.7447 12.1959 21.5417
rtibia 45.9921
rfoot -26.7909 -24.4233
rtoes 2.54001
lfemur -17.2394 -0.136614 -27.4561
ltibia 43.3883
lfoot 153.136 -176.574
ltoes 1.24686
2516
root 9.32063 26.2373 17.5186 364.658 0.254151 1083.83
lowerback -6.71264 2.80075 -3.44857
upperback -2.5848 3.94632 -0.143691
thorax 0.865482 1.98999 2.06317
lowerneck -15.6447 -5.45358 -10.3922
upperneck 33.4873 -6.0209 3.53425
head 14.6532 -3.41811 2.21864
rclavicle -4.41302e-014 1.55052e-014
rhumerus 18.9129 -10.3249 1.83837
rradius 40.996
rwrist 8.48711
rhand -19.6647 -739.378
rfingers 7.12502
rthumb 6.66351 -409.254
lclavicle -4.41302e-014 1.55052e-014
lhumerus 38.0167 4.07527 7.77969
lradius 31.9189
lwrist 1.64621
lhand -50.5541 -356.967
lfingers 7.12502
lthumb -23.1209 -328.334
rfemur -17.8816 11.9868 21.3761
rtibia 45.9233
rfoot -26.1222 -24.0752
rtoes 1.53412
lfemur -17.4745 -0.115479 -27.4711
ltibia 43.4141
lfoot 153.817 -176.784
ltoes 1.07807
2517
root 9.31567 26.2683 17.4677 364.624 0.258283 1083.96
lowerback -6.29881 2.66044 -3.6072
upperback -2.37861 3.75845 -0.208741
thorax 0.853821 1.89416 2.05648
lowerneck -15.2322 -5.1802 -9.62494
upperneck 33.2312 -5.77307 3.19246
head 14.369 -3.26248 1.99835
rclavicle -7.22085e-014 -7.95139e-016
rhumerus 15.7705 -6.40002 4.34549
rradius 39.8964
rwrist 4.2934
rhand -17.8826 -737.918
rfingers 7.12502
rthumb 8.38368 -407.731
lclavicle -7.22085e-014 -7.95139e-016
lhumerus 34.1218 2.724 6.09658
lradius 31.8047
lwrist 3.80104
lhand -40.022 -365.541
lfingers 7.12502
lthumb -12.9889 -335.965
rfemur -18.1457 11.9299 21.1351
rtibia 45.8714
rfoot -25.5529 -23.836
rtoes 0.943518
lfemur -17.6847 -0.0820097 -27.5073
ltibia 43.4195
lfoot 154.542 -177.135
ltoes 0.902727
